# xmcd
#
# Track frame offsets:
#	150
#	17282
#	37587
#	54202
#	78642
#	93222
#	112465
#	129007
#	149252
#	169522
#	184622
#	205515
#
# Disc length: 2970 seconds
#
# Revision: 1
# Processed by: cddbd v1.4PL0 Copyright (c) Steve Scherf et al.
# Submitted via: audiograbber 1.80.04
#
DISCID=860b980c
DTITLE=Erskine Oglesby - Honkin' and Shoutin'
DYEAR=2001
DGENRE=Blues
TTITLE0=Cold Duck
TTITLE1=Let Me Go Judge
TTITLE2=I Got Eyes
TTITLE3=Fair Skin Woman
TTITLE4=I Know I Care
TTITLE5=I Don't Want To Be No Fat Man
TTITLE6=Backstreet
TTITLE7=Waiting On You
TTITLE8=Mindgames
TTITLE9=It's Good To See You
TTITLE10=Jam Bang
TTITLE11=Early In The Morning
EXTD=2001, Black and Tan Records
EXTT0=
EXTT1=
EXTT2=
EXTT3=
EXTT4=
EXTT5=
EXTT6=
EXTT7=
EXTT8=
EXTT9=
EXTT10=
EXTT11=
PLAYORDER=
